<?xml version="1.0" standalone="no"?>
<!DOCTYPE svg PUBLIC "-//W3C//DTD SVG 20010904//EN"
 "http://www.w3.org/TR/2001/REC-SVG-20010904/DTD/svg10.dtd">
<svg version="1.0" xmlns="http://www.w3.org/2000/svg"
 width="50.000000pt" height="50.000000pt" viewBox="0 0 50.000000 50.000000"
 preserveAspectRatio="xMidYMid meet">

<g transform="translate(0.000000,50.000000) scale(0.100000,-0.100000)"
fill="#000000" stroke="none">
<path d="M63 380 c-44 -26 -63 -68 -63 -137 0 -91 51 -153 127 -153 34 0 88
31 103 59 15 29 3 26 -37 -9 -45 -40 -91 -40 -133 -2 -16 15 -33 42 -36 60
l-7 32 117 0 116 0 0 38 c0 100 -104 163 -187 112z m133 -34 c24 -24 34 -43
34 -65 l0 -31 -105 0 -105 0 0 31 c0 46 56 99 105 99 29 0 45 -8 71 -34z"/>
<path d="M260 384 c0 -3 23 -35 51 -70 31 -39 48 -68 43 -76 -4 -7 -29 -41
-57 -75 -29 -37 -43 -63 -35 -63 8 0 36 29 63 65 27 36 50 65 50 65 0 0 23
-29 50 -65 27 -36 55 -65 63 -65 8 0 -6 26 -35 63 -28 34 -53 68 -57 75 -5 8
12 37 45 78 28 36 48 68 44 72 -4 4 -21 -11 -38 -33 -18 -21 -41 -50 -53 -64
l-20 -24 -49 62 c-43 54 -65 73 -65 55z"/>
</g>
</svg>
