<?xml version="1.0" standalone="no"?>
<!DOCTYPE svg PUBLIC "-//W3C//DTD SVG 20010904//EN"
 "http://www.w3.org/TR/2001/REC-SVG-20010904/DTD/svg10.dtd">
<svg version="1.0" xmlns="http://www.w3.org/2000/svg"
 width="320.000000pt" height="320.000000pt" viewBox="0 0 320.000000 320.000000"
 preserveAspectRatio="xMidYMid meet">

<g transform="translate(0.000000,320.000000) scale(0.100000,-0.100000)"
fill="#000000" stroke="none">
<path d="M1796 2921 c-37 -15 -82 -39 -100 -53 -27 -22 -31 -32 -36 -89 l-5
-64 -43 3 c-74 4 -105 -18 -146 -108 -50 -110 -49 -151 4 -201 22 -21 40 -41
40 -45 0 -4 -19 -24 -41 -45 -40 -37 -41 -40 -37 -91 3 -31 19 -82 37 -121 38
-79 69 -100 140 -95 l46 3 3 -62 c4 -77 25 -102 125 -144 99 -41 137 -39 184
11 21 22 42 40 46 40 4 0 25 -18 46 -40 48 -50 83 -52 185 -10 100 42 121 66
121 138 l0 57 61 5 c74 6 97 23 131 100 41 92 47 133 28 173 -9 19 -27 40 -40
47 -33 18 -31 41 5 74 58 51 59 78 8 203 -36 89 -70 114 -144 111 l-49 -3 0
55 c-1 30 -6 65 -13 77 -13 23 -141 89 -191 99 -36 8 -94 -19 -111 -51 -20
-38 -38 -38 -73 -1 -36 38 -67 56 -94 55 -10 0 -49 -13 -87 -28z m133 -80 c36
-45 77 -57 124 -37 18 7 38 25 46 39 8 15 22 29 31 32 17 5 150 -50 161 -67 3
-5 4 -31 1 -58 -4 -45 -2 -52 27 -81 29 -29 36 -31 80 -26 26 3 52 2 59 -1 17
-11 73 -149 66 -165 -3 -8 -16 -20 -30 -28 -64 -34 -68 -119 -9 -165 43 -33
44 -54 5 -140 l-29 -65 -44 6 c-50 8 -99 -11 -117 -44 -5 -11 -10 -45 -10 -75
l0 -56 -57 -25 c-95 -43 -99 -43 -142 4 -32 35 -44 41 -78 41 -39 0 -60 -13
-101 -64 -18 -22 -38 -19 -112 17 l-65 32 0 58 c0 54 -3 61 -34 89 -31 27 -38
30 -81 24 -55 -7 -65 1 -98 83 -29 71 -28 86 7 107 34 20 51 52 51 96 0 24
-10 40 -42 70 l-42 38 17 53 c9 28 26 67 37 85 19 31 23 33 63 27 84 -13 134
36 122 119 -5 29 -3 45 7 53 15 13 127 61 145 62 6 1 25 -16 42 -38z"/>
<path d="M1973 2599 c-165 -30 -252 -212 -168 -355 34 -58 76 -91 141 -110 99
-28 209 11 264 94 35 53 44 93 38 168 -11 128 -143 226 -275 203z m135 -96
c48 -35 73 -91 69 -151 -9 -127 -140 -193 -252 -127 -43 25 -67 62 -80 123
-10 48 32 131 82 160 49 29 139 27 181 -5z"/>
<path d="M1233 2615 c-179 -121 -336 -337 -396 -546 l-25 -84 -113 -6 c-219
-13 -393 -98 -527 -259 -194 -235 -225 -559 -77 -827 52 -94 197 -236 290
-285 85 -44 195 -76 290 -84 59 -6 73 -4 85 11 27 32 1 49 -99 62 -223 30
-419 165 -515 355 -54 108 -69 175 -69 308 0 103 3 124 30 197 40 111 87 186
160 259 127 127 265 184 458 192 66 2 128 8 137 13 9 5 20 26 23 47 35 208
174 427 361 567 73 55 87 78 62 103 -16 16 -17 16 -75 -23z"/>
<path d="M2673 2174 c-3 -9 6 -53 20 -98 14 -45 29 -99 32 -121 15 -96 14 -94
88 -143 148 -97 248 -233 292 -398 21 -77 21 -249 0 -329 -28 -109 -83 -203
-170 -291 -119 -120 -230 -174 -404 -198 -92 -12 -117 -29 -91 -61 31 -37 236
2 369 70 122 61 253 198 315 328 55 115 70 186 69 317 -2 273 -106 460 -349
630 -38 26 -43 34 -49 82 -9 65 -42 175 -61 206 -17 26 -52 29 -61 6z"/>
<path d="M722 1547 c-9 -11 -12 -83 -10 -273 l3 -259 30 0 30 0 3 113 3 112
78 0 c104 0 109 -6 113 -130 l3 -95 30 0 30 0 3 100 c2 76 -1 109 -14 136 -15
34 -15 38 1 63 13 20 16 42 13 101 -3 69 -6 78 -36 108 l-32 32 -118 3 c-94 3
-121 1 -130 -11z m234 -82 c21 -29 18 -101 -6 -125 -16 -16 -33 -20 -95 -20
l-75 0 0 78 c0 43 3 82 8 86 4 4 40 6 80 4 59 -3 77 -7 88 -23z"/>
<path d="M1222 1548 c-9 -9 -12 -81 -12 -264 0 -216 2 -255 16 -268 12 -13 40
-16 134 -16 129 0 170 9 170 38 0 35 -20 42 -132 42 l-108 0 0 85 0 85 75 0
c61 0 76 3 84 18 6 11 6 24 0 35 -8 14 -24 17 -84 17 l-75 0 0 85 0 84 111 3
c92 2 114 6 122 20 8 12 7 21 -2 32 -11 13 -38 16 -150 16 -93 0 -141 -4 -149
-12z"/>
<path d="M1733 1544 c-49 -24 -73 -70 -73 -140 0 -96 51 -154 134 -154 40 0
87 -16 98 -33 4 -7 8 -33 8 -58 0 -58 -21 -79 -79 -79 -55 0 -78 13 -86 50 -8
36 -19 44 -51 36 -18 -5 -24 -13 -24 -34 0 -34 31 -86 66 -108 39 -26 140 -24
185 4 47 29 61 56 66 126 3 49 0 67 -16 94 -29 46 -77 72 -132 72 -60 0 -89
22 -96 75 -7 54 17 84 74 92 49 6 93 -15 93 -46 0 -24 33 -53 53 -45 46 17 14
119 -46 147 -44 21 -132 22 -174 1z"/>
<path d="M2120 1545 c-6 -8 -9 -23 -5 -35 6 -18 15 -20 76 -20 l69 0 0 -224
c0 -123 3 -231 6 -240 8 -21 60 -21 68 0 3 9 6 116 6 239 l0 224 66 3 c74 3
100 22 75 52 -19 23 -342 24 -361 1z"/>
<path d="M1085 791 c-76 -39 -80 -56 -77 -301 4 -237 12 -269 56 -224 13 12
16 38 16 120 l0 105 113 -3 112 -3 3 -104 c3 -124 18 -154 56 -115 14 13 16
47 16 220 0 183 -2 209 -19 243 -30 57 -63 74 -156 79 -66 3 -87 0 -120 -17z
m197 -78 c14 -12 18 -31 18 -80 l0 -63 -110 0 -110 0 0 60 c0 85 17 100 112
100 52 0 76 -4 90 -17z"/>
<path d="M1572 798 c-9 -9 -12 -82 -12 -269 0 -222 2 -258 16 -270 11 -9 20
-10 32 -2 14 8 18 30 20 107 l3 96 77 1 c150 1 192 39 192 173 0 95 -20 139
-75 162 -44 18 -235 20 -253 2z m242 -90 c20 -29 21 -127 2 -154 -12 -16 -27
-19 -98 -19 l-83 0 -3 84 c-2 46 -1 90 2 98 4 9 28 13 85 13 71 0 82 -2 95
-22z"/>
<path d="M2078 799 c-16 -9 -18 -33 -18 -269 0 -252 1 -260 21 -270 15 -9 24
-8 35 1 11 9 14 57 14 268 0 282 -3 299 -52 270z"/>
</g>
</svg>
