<?xml version="1.0" standalone="no"?>
<!DOCTYPE svg PUBLIC "-//W3C//DTD SVG 20010904//EN"
 "http://www.w3.org/TR/2001/REC-SVG-20010904/DTD/svg10.dtd">
<svg version="1.0" xmlns="http://www.w3.org/2000/svg"
 width="1280.000000pt" height="720.000000pt" viewBox="0 0 1280.000000 720.000000"
 preserveAspectRatio="xMidYMid meet">

<g transform="translate(0.000000,720.000000) scale(0.100000,-0.100000)"
fill="#000000" stroke="none">
<path d="M8957 5515 c6 -17 5 -18 -9 -7 -11 9 -18 10 -23 2 -3 -6 -11 -8 -16
-4 -5 3 -9 2 -8 -3 4 -21 -2 -24 -18 -12 -17 13 -17 13 0 -7 9 -11 17 -26 17
-33 0 -9 -6 -6 -17 6 -10 10 -15 14 -10 9 16 -21 6 -28 -15 -10 -23 19 -23 19
-5 -2 21 -26 22 -41 1 -23 -27 23 -43 19 -38 -8 3 -17 1 -22 -7 -17 -7 4 -9 3
-5 -4 3 -6 2 -13 -4 -17 -5 -3 -10 -1 -10 6 0 7 -7 4 -16 -7 -15 -19 -16 -19
-9 1 5 16 4 17 -6 8 -9 -9 -9 -16 -1 -25 7 -9 7 -19 2 -28 -8 -13 -10 -12 -10
2 0 9 -5 20 -12 24 -7 4 -8 3 -4 -5 10 -15 -3 -53 -15 -45 -6 4 -6 11 1 19 8
9 8 15 0 20 -10 6 -11 5 -14 -15 0 -5 -5 -9 -11 -7 -5 1 -9 6 -7 10 1 5 -2 5
-8 2 -8 -5 -6 -13 4 -24 26 -29 18 -36 -10 -10 -14 13 -25 20 -24 14 5 -22 -1
-27 -17 -14 -11 8 -9 3 4 -11 15 -18 21 -36 20 -62 -2 -33 -17 -45 -17 -12 0
8 -4 14 -10 14 -5 0 -6 8 -3 17 6 15 7 15 14 -3 6 -15 8 -15 8 -3 1 9 -6 22
-15 29 -8 8 -14 9 -13 4 4 -21 -2 -35 -11 -29 -6 4 -7 12 -3 18 5 8 2 8 -9 0
-8 -7 -17 -10 -20 -8 -3 3 -5 -2 -5 -12 0 -35 -3 -44 -13 -38 -5 3 -6 13 -3
23 3 9 3 14 -1 10 -6 -5 -9 -14 -15 -48 -1 -3 -6 2 -12 10 -8 11 -9 9 -3 -10
3 -14 3 -22 -1 -18 -14 13 -33 -12 -27 -34 5 -21 6 -21 14 -2 6 13 6 10 2 -11
-4 -16 -7 -35 -7 -42 0 -7 -4 -10 -8 -7 -5 2 -6 11 -2 19 3 9 -2 26 -10 39
-14 21 -14 25 4 43 16 15 17 20 5 20 -8 0 -14 -5 -13 -11 1 -6 -3 -10 -10 -9
-6 1 -10 -5 -9 -15 4 -23 -15 -63 -26 -56 -4 3 -5 11 -1 17 10 16 13 41 5 32
-4 -4 -7 -12 -7 -18 0 -7 -6 -13 -12 -13 -7 -1 -16 -3 -20 -4 -5 -1 -11 -2
-14 -2 -3 1 -6 -5 -6 -13 0 -8 4 -12 9 -9 4 3 8 1 8 -5 0 -19 -19 -21 -29 -4
-6 10 -11 13 -11 6 0 -6 4 -14 9 -17 5 -3 7 -16 5 -29 -4 -20 -4 -21 5 -2 l10
20 1 -20 c1 -20 2 -20 9 -1 7 19 8 19 13 -2 4 -13 2 -20 -3 -16 -6 3 -8 -6 -5
-21 3 -15 2 -24 -2 -20 -7 6 -8 10 -11 36 0 5 -5 8 -11 4 -5 -3 -8 -11 -6 -18
1 -7 1 -9 -1 -4 -3 4 -9 4 -14 1 -6 -3 -5 -12 3 -22 7 -10 8 -14 4 -10 -5 4
-15 0 -23 -10 -13 -15 -13 -15 -4 5 6 12 7 24 2 27 -8 5 -21 -21 -25 -49 0 -5
-8 -10 -16 -10 -8 -1 -14 -6 -13 -11 1 -6 -4 -11 -11 -11 -6 0 -13 12 -14 26
-1 14 -7 28 -12 29 -6 2 -8 8 -4 13 9 16 24 -1 24 -27 0 -14 4 -23 9 -20 5 3
8 14 6 24 -1 9 0 11 2 4 3 -7 9 -10 14 -6 6 4 5 11 -2 20 -6 8 -9 17 -6 21 4
3 9 -2 13 -11 6 -15 8 -14 19 6 6 13 16 22 21 21 6 -1 11 7 11 18 1 10 -2 19
-8 19 -5 0 -8 -3 -7 -7 3 -8 -5 -13 -17 -13 -3 0 -1 9 5 20 7 12 16 18 23 13
7 -4 7 0 -2 10 -7 9 -16 17 -19 17 -3 0 -2 -3 1 -6 4 -4 -2 -19 -13 -34 -14
-20 -16 -30 -8 -38 7 -7 8 -12 2 -12 -5 0 -15 5 -22 12 -9 9 -8 16 6 32 17 21
17 21 -5 2 -15 -13 -20 -23 -14 -30 6 -7 6 -17 1 -26 -9 -14 -11 -13 -14 9 0
5 -5 13 -9 18 -5 4 -8 4 -7 -2 5 -22 -1 -27 -17 -14 -16 12 -17 12 -5 -2 10
-13 9 -19 -3 -29 -8 -7 -15 -21 -15 -32 0 -10 -5 -16 -10 -13 -6 4 -8 10 -5
15 3 4 -3 7 -12 5 -12 -1 -17 -9 -14 -21 3 -18 2 -18 -20 1 l-24 20 17 -20 c9
-11 14 -25 10 -31 -9 -13 -33 -12 -30 1 2 6 7 9 13 7 5 -2 6 0 2 4 -12 13 -37
13 -34 1 1 -7 -3 -11 -8 -10 -6 1 -11 -8 -12 -20 -1 -12 -4 -33 -8 -47 -5 -21
-3 -20 9 5 l14 30 0 -30 c0 -16 2 -41 5 -54 4 -13 3 -20 -1 -17 -7 7 -8 11
-11 37 0 5 -5 8 -11 4 -5 -3 -8 -11 -6 -18 1 -7 1 -9 -1 -4 -3 4 -9 4 -14 1
-6 -3 -5 -12 3 -22 12 -15 11 -16 -4 -3 -16 12 -18 11 -19 -3 -3 -29 -4 -34
-12 -43 -5 -4 -7 -3 -5 2 2 6 -2 10 -7 10 -5 0 -9 -3 -8 -6 1 -3 -4 -6 -12 -6
-8 0 -12 4 -9 8 2 4 -1 11 -7 15 -8 5 -10 -1 -7 -20 3 -14 2 -28 -2 -31 -4 -2
-7 10 -6 28 1 19 6 31 13 30 7 -2 10 4 7 12 -4 8 -1 15 6 15 6 0 9 -4 5 -9 -3
-5 -1 -12 4 -16 6 -3 8 4 6 15 -2 11 0 18 5 15 5 -3 11 -1 15 5 4 6 11 7 17 4
7 -5 8 -2 3 6 -6 9 -4 11 5 5 9 -6 11 -4 5 5 -6 9 -4 11 4 5 10 -6 11 -3 2 12
-6 11 -7 23 -4 27 4 4 8 14 9 22 1 9 -1 13 -4 9 -4 -4 -7 -12 -7 -18 0 -7 -5
-12 -12 -12 -6 0 -15 -4 -20 -8 -4 -5 -2 -7 6 -5 7 2 15 -2 18 -8 2 -7 -6 -10
-21 -9 -19 3 -23 0 -18 -13 5 -15 3 -15 -10 -4 -13 10 -18 10 -24 1 -4 -7 -3
-9 4 -5 6 3 13 2 16 -3 8 -13 -19 -21 -33 -10 -8 6 -8 5 -1 -3 15 -19 12 -32
-5 -18 -8 7 -16 10 -16 6 -1 -3 -3 -10 -4 -16 -1 -5 -3 -15 -4 -21 0 -5 -5 -8
-10 -5 -5 4 -4 -5 2 -19 l12 -25 6 33 6 32 2 -31 c1 -20 -6 -37 -21 -50 -12
-10 -18 -14 -15 -7 4 6 2 15 -4 19 -8 5 -10 -1 -7 -18 5 -26 -12 -33 -29 -13
-4 4 -3 5 4 1 7 -4 13 2 15 16 2 13 9 22 16 21 6 -2 12 5 11 15 0 13 -6 10
-26 -14 -15 -18 -335 -648 -712 -1401 -377 -752 -695 -1381 -705 -1396 -27
-40 -60 -51 -96 -32 -17 9 -32 26 -35 38 -4 13 48 286 114 608 67 322 121 592
121 601 0 20 -32 48 -57 48 -11 0 -93 -23 -184 -50 -92 -28 -174 -48 -186 -45
-13 3 -30 17 -40 31 -15 24 -15 31 2 122 10 53 19 109 20 124 0 15 3 30 7 33
3 4 -2 15 -13 26 -11 11 -16 26 -13 36 5 17 5 17 -6 0 -6 -9 -16 -15 -21 -11
-5 3 -9 2 -8 -3 4 -20 -2 -24 -18 -12 -13 10 -15 10 -7 0 7 -7 10 -29 8 -49
-3 -33 -2 -34 6 -12 8 21 9 20 4 -10 -3 -19 -7 -41 -8 -48 -1 -7 -8 -18 -16
-25 -10 -10 -11 -9 -4 3 5 8 10 26 11 40 2 23 1 23 -12 -5 -8 -16 -14 -25 -15
-18 0 6 -3 20 -6 30 -5 15 -4 15 5 3 9 -13 11 -13 12 0 5 39 4 79 -1 74 -3 -3
-5 -11 -5 -17 -1 -7 -7 -11 -14 -9 -7 1 -10 -2 -7 -7 4 -5 2 -12 -3 -16 -6 -3
-8 -12 -4 -20 4 -11 0 -14 -13 -9 -15 5 -16 4 -4 -5 19 -13 10 -20 -14 -12
-17 7 -17 8 -2 24 10 9 13 17 7 17 -14 0 -36 -41 -32 -59 2 -13 0 -13 -13 -2
-15 13 -15 16 1 35 18 21 18 21 -4 2 -12 -10 -22 -21 -21 -25 2 -19 -4 -24
-13 -11 -9 13 -10 13 -7 0 1 -8 -1 -27 -5 -42 -8 -30 -32 -29 -41 0 -3 12 -4
11 -3 -3 1 -11 -3 -20 -8 -20 -6 0 -9 3 -8 6 1 3 -5 6 -12 6 -10 0 -11 -4 -6
-11 6 -7 4 -20 -3 -35 -8 -14 -16 -19 -20 -13 -3 6 -2 13 4 17 5 3 10 11 10
18 0 6 -6 3 -13 -7 -18 -24 -21 -85 -5 -103 15 -18 20 -45 7 -37 -5 3 -7 9 -4
14 3 4 -3 14 -12 21 -15 12 -16 11 -11 -9 4 -12 2 -20 -3 -16 -5 3 -9 13 -9
22 0 14 -2 15 -10 2 -6 -9 -5 -19 2 -28 9 -10 8 -12 -2 -10 -8 2 -14 -2 -15
-9 0 -6 -4 -15 -8 -20 -5 -4 -7 -3 -5 2 2 6 -1 10 -7 10 -5 0 -9 -4 -7 -9 2
-5 -5 -3 -14 5 -16 12 -17 12 -11 -4 5 -12 3 -16 -5 -11 -8 5 -9 2 -5 -9 3 -9
2 -19 -4 -22 -5 -4 -9 -3 -8 2 3 19 -2 34 -10 29 -10 -7 -9 -25 2 -42 4 -7 -1
-18 -11 -25 -15 -12 -16 -12 -5 2 11 13 9 19 -7 34 -22 20 -28 8 -7 -15 10
-12 9 -12 -5 -1 -21 15 -24 2 -6 -19 11 -12 10 -12 -4 -1 -16 12 -22 9 -19
-11 0 -5 -4 -7 -11 -5 -7 1 -12 -3 -13 -10 0 -6 -4 -15 -9 -20 -5 -4 -6 -3 -2
4 3 6 2 14 -4 18 -9 6 -14 -7 -11 -27 0 -5 -4 -7 -11 -5 -7 1 -12 -3 -13 -10
0 -6 -4 -15 -9 -20 -5 -4 -6 -3 -3 3 4 7 0 17 -9 24 -13 12 -14 10 -10 -14 4
-23 3 -26 -10 -16 -17 15 -19 -1 -1 -20 10 -12 9 -12 -4 -2 -13 10 -19 9 -29
-3 -10 -12 -16 -13 -28 -3 -13 11 -15 10 -9 -4 3 -10 2 -20 -4 -23 -5 -4 -6
-12 -2 -18 3 -7 -4 -3 -17 8 l-23 20 7 -25 7 -25 -14 23 c-14 24 -16 69 -4 65
4 -2 9 -3 12 -3 3 0 1 -10 -5 -22 -10 -21 -9 -21 9 2 18 21 20 22 15 5 -4 -15
-1 -13 10 5 10 16 15 19 16 10 0 -13 2 -13 9 0 6 8 7 18 5 22 -3 5 -1 7 5 6 5
-2 17 6 25 17 l16 20 -6 -20 c-5 -16 -4 -17 5 -5 14 20 14 32 -2 28 -7 -2 -12
1 -12 7 0 5 5 9 10 7 6 -2 7 0 3 4 -4 4 -2 14 4 23 10 12 7 12 -8 -2 -11 -9
-23 -14 -26 -11 -3 3 -4 -11 -2 -31 3 -31 1 -35 -11 -25 -8 6 -11 19 -8 28 4
14 3 14 -5 3 -6 -8 -9 -23 -7 -33 4 -20 -30 -44 -40 -28 -6 9 0 13 16 12 3 -1
6 6 6 13 0 10 -4 12 -12 5 -7 -5 -15 -6 -19 -2 -4 4 -6 0 -4 -8 2 -9 -3 -14
-12 -12 -8 2 -12 0 -8 -4 4 -4 2 -14 -5 -22 -10 -13 -9 -14 2 -7 11 6 13 4 8
-10 -8 -20 4 -43 358 -665 133 -234 309 -542 390 -685 240 -423 246 -433 272
-451 40 -25 93 -28 132 -6 39 21 27 0 404 677 137 248 324 583 415 745 91 162
240 430 332 595 92 165 176 316 187 335 11 19 66 118 123 220 115 206 345 618
596 1068 92 163 185 331 207 372 22 41 50 91 62 110 21 35 38 72 35 79 -1 2 3
7 8 10 17 10 85 154 99 206 12 46 13 47 8 10 -5 -45 9 -29 18 21 4 20 1 38 -9
50 -14 18 -14 18 -7 -1z m-18 -60 c-6 -22 -10 -41 -8 -41 2 -1 -4 -11 -14 -21
-9 -11 -14 -23 -10 -28 5 -4 2 -5 -5 -1 -11 7 -10 11 2 25 9 10 13 20 10 24
-4 3 -20 -12 -35 -33 -16 -22 -32 -40 -35 -40 -3 0 -3 4 0 8 2 4 1 14 -5 22
-7 12 -9 11 -10 -5 -1 -11 -1 -24 0 -28 1 -5 -3 -6 -9 -2 -9 6 -15 -8 -10 -30
1 -5 -8 -1 -19 9 -22 20 -30 9 -8 -13 10 -10 9 -12 -3 -9 -8 2 -14 -2 -15 -9
0 -6 -3 -15 -7 -19 -4 -3 -6 3 -3 14 2 12 0 24 -6 27 -9 6 -12 -3 -12 -38 0
-17 -1 -17 -18 -1 -26 24 -24 6 4 -25 19 -22 19 -23 1 -8 -11 9 -24 14 -29 10
-4 -5 -6 -3 -2 2 3 6 1 17 -4 25 -8 11 -9 7 -7 -16 3 -18 0 -31 -7 -31 -7 0
-10 10 -7 24 2 13 -1 29 -7 37 -7 8 -8 17 -3 20 6 3 15 -1 22 -9 15 -18 33 -9
26 14 -5 13 -3 13 8 -2 14 -18 15 -17 21 4 5 15 9 18 15 9 6 -9 10 -6 16 11 4
13 8 27 9 31 0 3 4 10 9 15 5 4 6 -3 2 -19 -3 -15 -2 -29 3 -32 5 -3 9 6 9 20
0 13 7 33 17 44 9 10 14 23 11 29 -13 20 13 21 27 0 l15 -21 7 22 c5 16 9 19
15 10 6 -9 10 -6 15 9 4 13 4 25 1 28 -3 4 2 15 11 25 24 27 34 9 22 -37z
m-104 -144 c3 -5 2 -12 -3 -15 -5 -3 -9 1 -9 9 0 17 3 19 12 6z m-202 -102 c3
-12 1 -17 -6 -12 -7 4 -8 0 -4 -13 7 -18 6 -18 -6 -2 -8 10 -17 15 -20 11 -4
-3 -2 -12 4 -19 7 -8 7 -14 -1 -19 -6 -4 -9 -3 -8 2 2 4 -1 9 -7 10 -5 0 -9
-3 -8 -7 1 -4 -5 -14 -14 -22 -10 -8 -14 -8 -10 -1 4 6 3 14 -3 18 -5 3 -11
-3 -11 -14 -4 -54 -16 -65 -15 -13 1 28 -3 36 -14 34 -8 -2 -11 0 -7 5 5 4 13
8 17 8 5 0 16 9 25 20 13 16 16 17 11 3 -3 -10 0 -20 6 -24 7 -5 8 -2 3 6 -5
8 -4 11 1 7 5 -3 10 2 11 11 1 9 4 26 6 37 3 11 6 22 6 24 2 10 40 -32 44 -50z
m-148 -110 c-1 -16 -5 -33 -9 -37 -4 -4 -7 -2 -6 3 1 6 2 19 1 30 -1 16 -3 17
-10 6 -5 -8 -7 -19 -5 -26 3 -6 -2 -17 -10 -24 -12 -10 -17 -8 -26 9 -6 12
-16 18 -23 13 -8 -4 -7 -1 1 10 8 9 11 21 8 26 -13 20 13 21 27 1 14 -20 15
-20 27 10 15 36 29 24 25 -21z m-18 -64 c0 -8 -4 -12 -9 -9 -5 3 -6 10 -3 15
9 13 12 11 12 -6z m-219 -88 c-1 -12 2 -29 7 -37 8 -13 7 -13 -10 0 -17 14
-18 13 -12 -2 3 -10 2 -20 -4 -23 -5 -4 -9 -3 -8 2 1 4 1 15 -1 23 -1 11 -4 9
-9 -5 -5 -12 -4 -26 3 -35 9 -13 9 -13 -5 -2 -15 11 -21 8 -44 -20 -15 -18
-22 -23 -16 -12 6 12 8 24 4 28 -9 8 -34 -44 -27 -58 3 -6 -1 -3 -10 7 -8 11
-12 25 -9 33 3 8 0 20 -6 28 -13 15 -3 29 13 19 6 -4 16 -8 23 -9 17 -3 45 44
37 59 -4 7 2 4 14 -7 23 -20 21 -22 37 30 7 22 27 6 23 -19z m12 -61 c0 -2 -8
-10 -17 -17 -16 -13 -17 -12 -4 4 13 16 21 21 21 13z m-63 -41 c0 -8 -4 -12
-9 -9 -5 3 -6 10 -3 15 9 13 12 11 12 -6z m-157 -29 c0 -2 -7 -9 -15 -16 -13
-11 -14 -10 -9 4 5 14 24 23 24 12z m-80 -139 c0 -2 -10 -12 -22 -23 l-23 -19
19 23 c18 21 26 27 26 19z m-99 -60 c-10 -9 -11 -8 -5 6 3 10 9 15 12 12 3 -3
0 -11 -7 -18z m-1735 -1250 c-1 -9 -10 -24 -19 -35 -9 -10 -14 -21 -11 -24 3
-3 1 -9 -4 -12 -11 -7 -11 12 0 30 4 6 1 22 -6 36 -12 22 -12 28 2 42 14 14
17 14 28 -3 7 -9 12 -25 10 -34z m-86 -20 c0 -8 -7 -14 -15 -14 -11 0 -12 4
-4 14 6 7 13 13 15 13 2 0 4 -6 4 -13z m-23 -51 c-3 -7 0 -20 6 -27 10 -11 9
-11 -5 0 -21 15 -24 2 -5 -19 10 -12 9 -12 -4 -2 -21 15 -32 3 -17 -17 9 -12
7 -11 -8 2 -18 15 -23 15 -32 4 -7 -8 -8 -18 -4 -23 4 -5 3 -6 -2 -2 -4 4 -19
-5 -33 -20 -13 -15 -22 -22 -19 -15 4 6 2 14 -4 18 -14 9 -12 -28 3 -45 10
-12 9 -12 -5 -1 -10 7 -18 22 -18 32 0 11 -4 19 -9 19 -6 0 -6 -12 -1 -31 5
-18 7 -29 3 -25 -10 10 -43 -25 -36 -38 4 -6 -1 -5 -10 3 -9 7 -17 21 -17 30
1 17 29 72 30 57 0 -5 7 -3 15 4 8 6 19 9 25 5 6 -4 17 9 25 29 16 39 30 51
40 36 9 -15 27 -1 21 16 -4 10 0 11 20 4 19 -8 26 -6 30 5 4 8 8 15 11 15 3 0
3 -6 0 -14z m-42 -75 c3 -5 2 -12 -3 -15 -5 -3 -9 1 -9 9 0 17 3 19 12 6z
m-172 -121 c11 -13 10 -13 -5 -1 -10 7 -17 25 -17 40 l2 26 4 -25 c3 -14 10
-32 16 -40z m-233 -204 c0 -2 -8 -10 -17 -17 -16 -13 -17 -12 -4 4 13 16 21
21 21 13z m-123 -81 c0 -8 -4 -12 -9 -9 -5 3 -6 10 -3 15 9 13 12 11 12 -6z"/>
<path d="M8927 5483 c-8 -14 -19 -68 -13 -62 8 8 26 69 21 69 -2 0 -6 -3 -8
-7z"/>
<path d="M8830 5397 c-18 -27 -31 -57 -24 -57 2 0 9 12 15 28 10 25 11 26 23
9 13 -16 15 -16 30 7 19 30 22 47 2 21 -12 -17 -14 -17 -22 -2 -8 15 -11 14
-24 -6z"/>
<path d="M8593 5223 c-3 -10 -8 -22 -11 -27 -3 -5 0 -6 6 -2 7 4 12 15 13 24
0 14 2 13 9 -3 7 -16 9 -17 9 -3 1 24 -18 33 -26 11z"/>
<path d="M8534 5168 c-4 -7 -4 -10 1 -6 4 4 15 2 24 -5 14 -11 14 -10 2 6 -16
20 -18 21 -27 5z"/>
<path d="M8417 5098 c-2 -8 1 -22 8 -32 18 -25 30 -1 12 24 -11 16 -16 17 -20
8z"/>
<path d="M8227 4941 c-4 -17 -3 -21 5 -13 5 5 8 16 6 23 -3 8 -7 3 -11 -10z"/>
<path d="M8167 4896 c-9 -13 -13 -26 -10 -30 9 -8 43 24 43 41 0 20 -16 15
-33 -11z m9 -14 c-17 -16 -18 -16 -5 5 7 12 15 20 18 17 3 -2 -3 -12 -13 -22z"/>
<path d="M8115 4854 c0 -25 10 -23 17 4 3 10 0 19 -6 19 -6 0 -11 -10 -11 -23z"/>
<path d="M6096 3391 c-3 -5 -2 -20 3 -33 6 -12 10 -21 11 -18 8 28 8 50 1 55
-5 3 -12 1 -15 -4z"/>
<path d="M5961 3266 c-7 -8 -21 -13 -31 -11 -11 2 -19 1 -18 -3 1 -4 -3 -17
-10 -29 -20 -36 2 -34 31 3 15 18 33 33 39 31 6 -1 13 4 15 11 6 17 -12 15
-26 -2z m-21 -20 c0 -2 -8 -10 -17 -17 -16 -13 -17 -12 -4 4 13 16 21 21 21
13z"/>
<path d="M5833 3164 c-10 -24 -11 -25 -7 -4 4 19 3 22 -5 10 -6 -8 -11 -24
-11 -35 0 -19 1 -19 21 2 12 11 19 29 17 38 -2 14 -6 12 -15 -11z"/>
<path d="M8199 4983 c-13 -16 -12 -17 4 -4 9 7 17 15 17 17 0 8 -8 3 -21 -13z"/>
<path d="M8021 4776 c-7 -8 -8 -17 -3 -20 6 -3 12 3 15 14 6 24 4 25 -12 6z"/>
<path d="M6130 3455 c5 -7 6 -16 2 -21 -4 -5 -3 -5 2 -1 15 12 15 34 0 34 -9
0 -11 -4 -4 -12z"/>
<path d="M6140 3420 c-8 -5 -12 -12 -9 -15 4 -3 12 1 19 10 14 17 11 19 -10 5z"/>
<path d="M5864 3255 c0 -13 3 -22 7 -19 8 4 6 30 -2 38 -3 3 -5 -5 -5 -19z"/>
<path d="M5747 3159 c-3 -12 -10 -18 -17 -14 -6 3 -10 3 -9 -2 3 -20 -2 -27
-12 -13 -8 13 -9 13 -7 -2 2 -9 -1 -17 -7 -16 -5 0 -8 5 -7 12 2 6 0 7 -5 3
-4 -5 -8 -12 -9 -15 -2 -20 -17 -41 -25 -36 -5 3 -6 11 -2 17 10 16 13 41 5
32 -4 -4 -8 -11 -8 -16 -1 -5 -3 -11 -4 -14 -1 -3 -3 -15 -4 -27 0 -12 -6 -23
-13 -25 -7 -3 -11 3 -8 15 2 11 -2 19 -11 19 -8 0 -10 -5 -6 -11 5 -6 7 -17 6
-23 -1 -7 -2 -18 -3 -24 0 -5 -5 -8 -10 -4 -6 3 -8 15 -6 27 3 11 1 17 -3 14
-4 -4 -7 -13 -7 -19 0 -7 -6 -13 -12 -13 -7 -1 -16 -3 -20 -4 -5 -1 -11 -2
-15 -1 -5 0 -7 -5 -5 -12 1 -6 -3 -11 -10 -10 -7 2 -10 -9 -7 -30 l4 -32 -14
25 c-9 14 -15 20 -16 15 0 -6 6 -20 14 -31 10 -14 12 -24 4 -35 -8 -12 -9 -12
-5 1 2 8 -2 21 -9 28 -17 15 -17 12 -3 -25 l11 -28 20 25 c11 14 25 25 32 25
6 0 22 17 35 37 20 32 27 36 40 25 9 -7 12 -8 8 -1 -4 7 0 17 8 24 8 7 15 9
15 4 1 -5 8 3 16 19 8 15 20 27 27 26 9 0 9 -2 0 -6 -7 -2 -13 -9 -13 -15 0
-6 7 -4 17 3 9 8 19 14 22 14 5 0 9 11 16 50 5 31 6 32 15 5 6 -21 7 -17 8 18
0 47 -3 52 -11 21z m-23 -57 c-6 -4 -10 -15 -8 -25 2 -15 0 -16 -12 -6 -12 10
-21 5 -51 -25 -20 -20 -39 -34 -42 -31 -2 3 5 12 17 21 12 8 19 20 16 26 -4 7
-2 8 4 4 6 -3 16 3 22 14 6 11 15 18 19 15 5 -2 14 2 21 10 7 9 15 13 19 10 3
-3 1 -9 -5 -13z m-142 -103 c-2 -7 -8 -20 -13 -29 -9 -13 -10 -13 -5 2 2 9 2
19 -1 22 -10 10 -33 -15 -33 -35 0 -10 -4 -20 -8 -23 -15 -9 -5 44 12 63 19
21 53 21 48 0z m-30 -36 c-3 -16 -7 -22 -10 -15 -4 13 4 42 11 42 2 0 2 -12
-1 -27z"/>
<path d="M5433 2868 c-20 -26 -26 -41 -15 -34 12 7 36 46 29 46 -3 0 -9 -6
-14 -12z"/>
<path d="M5366 2808 c3 -5 10 -6 15 -3 13 9 11 12 -6 12 -8 0 -12 -4 -9 -9z"/>
</g>
</svg>
